<?xml version="1.0" encoding="utf-8"?>
<!-- Generator: Adobe Illustrator 23.0.3, SVG Export Plug-In . SVG Version: 6.00 Build 0)  -->
<svg version="1.1" id="Layer_1" xmlns="http://www.w3.org/2000/svg" xmlns:xlink="http://www.w3.org/1999/xlink" x="0px" y="0px"
	 viewBox="0 0 165 40" style="enable-background:new 0 0 165 40;" xml:space="preserve">
<style type="text/css">
	.st0{fill:#FFFFFF;}
	.st1{fill:#161B3D;}
	.st2{fill:#1ED760;}
	.st3{fill:#E2E5ED;}
</style>
<path class="st0" d="M157.6,1H7.4C3.9,1,1,3.9,1,7.4v24.9c0,3.6,2.9,6.4,6.4,6.5h150.2c3.5,0,6.4-2.9,6.4-6.4v-25
	C164,3.9,161.1,1,157.6,1z"/>
<path class="st1" d="M44.7,14.8H40V7h0.7v7.2h4V14.8z M45.6,7.5C45.6,7.3,45.8,7,46,7c0.2,0,0.5,0.2,0.5,0.5C46.5,7.8,46.3,8,46,8
	C45.8,8,45.6,7.8,45.6,7.5z M45.7,9.3h0.7V15h-0.7V9.3z M49.5,9.1c1.2,0,2,0.7,2.1,1.7h-0.7c0-0.7-0.6-1.1-1.4-1.1s-1.4,0.4-1.4,1
	c0,0.5,0.4,0.7,1.1,1l0.9,0.2c1.1,0.2,1.6,0.7,1.6,1.5c0,1-0.9,1.6-2.1,1.6c-1.2,0-2.1-0.6-2.2-1.7H48c0.1,0.7,0.6,1.1,1.5,1.1
	c0.9,0,1.4-0.4,1.4-1c0-0.5-0.2-0.7-1-1l-0.7-0.2c-1.1-0.2-1.6-0.7-1.6-1.5C47.5,9.8,48.4,9.1,49.5,9.1z M53.7,7.8v1.4h1.1v0.6h-1.1
	v3.7c0,0.6,0.2,0.9,0.7,0.9h0.4V15h-0.5c-1,0-1.4-0.4-1.4-1.5V9.8h-0.9V9.3H53V7.8L53.7,7.8z M60.3,13.2c-0.1,1-1.1,1.7-2.4,1.7
	c-1.6,0-2.6-1.1-2.6-2.8s1-3,2.5-3s2.5,1.1,2.5,2.8v0.2h-4.2c0,1.2,0.7,2.1,1.9,2.1c0.9,0,1.5-0.5,1.6-1.1H60.3z M56.1,11.6h3.5
	c0-1.1-0.6-1.9-1.6-1.9C56.8,9.8,56.2,10.5,56.1,11.6z M61.3,9.3h0.6v1c0.2-0.7,1-1.1,1.9-1.1c1.2,0,2,0.7,2,2.1V15H65v-3.6
	c0-1-0.5-1.6-1.5-1.6c-1,0-1.6,0.7-1.6,1.7v3.3h-0.7L61.3,9.3z M69.1,12.1c0-1.9,1-3,2.6-3c1.5,0,2.6,1.1,2.6,3s-1,3-2.6,3
	C70.1,15.1,69.1,13.9,69.1,12.1z M73.6,12.1c0-1.5-0.7-2.4-1.9-2.4s-1.9,0.9-1.9,2.2s0.7,2.2,1.9,2.2S73.6,13.5,73.6,12.1z
	 M75.2,9.3h0.6v1c0.2-0.7,1-1.1,1.9-1.1c1.2,0,2,0.7,2,2.1V15H79v-3.6c0-1-0.5-1.6-1.5-1.6s-1.6,0.7-1.6,1.7v3.3h-0.7V9.3z"/>
<path class="st2" d="M20.3,5.8C12.6,5.8,6.4,12,6.4,19.6c0,7.7,6.2,13.9,13.9,13.9S34,27.2,34,19.6C34,12,27.8,5.8,20.3,5.8z
	 M26.6,25.7c-0.2,0.4-0.7,0.5-1.2,0.2c-3.2-2-7.3-2.5-12.1-1.4c-0.5,0.1-0.9-0.1-1-0.6c-0.1-0.5,0.1-0.9,0.6-1
	c5.2-1.2,9.8-0.7,13.4,1.5C26.7,24.9,26.8,25.4,26.6,25.7z M28.2,22c-0.4,0.5-1,0.6-1.5,0.4c-3.7-2.2-9.4-3-13.8-1.6
	c-0.6,0.1-1.1-0.1-1.4-0.7c-0.1-0.6,0.1-1.1,0.7-1.4c5-1.5,11.3-0.7,15.5,1.9C28.5,20.8,28.6,21.5,28.2,22z M28.3,18.1
	c-4.5-2.6-11.8-2.8-16.1-1.6c-0.7,0.2-1.4-0.1-1.6-0.9s0.1-1.4,0.9-1.6c4.8-1.5,13-1.2,18.1,1.9c0.6,0.4,0.9,1.1,0.5,1.7
	C29.8,18.2,28.9,18.4,28.3,18.1z"/>
<path class="st1" d="M44.6,25c-2.2-0.5-2.6-0.9-2.6-1.7c0-0.7,0.7-1.2,1.7-1.2c1,0,2,0.4,3,1.1h0.2l1.1-1.5v-0.2
	c-1.2-1-2.6-1.5-4.2-1.5c-2.4,0-4.1,1.5-4.1,3.5c0,2.2,1.5,3,4,3.6c2.1,0.5,2.5,0.9,2.5,1.6c0,0.9-0.7,1.4-1.9,1.4
	c-1.2,0-2.4-0.5-3.6-1.5h-0.2L39.2,30v0.2c1.4,1.2,3.1,1.9,4.8,1.9c2.6,0,4.2-1.4,4.2-3.6C48.4,26.7,47.3,25.7,44.6,25z M54.2,22.9
	c-1.1,0-2,0.5-2.8,1.4v-1c0-0.1-0.1-0.1-0.1-0.1h-2c-0.1,0-0.1,0.1-0.1,0.1v11.3c0,0.1,0.1,0.1,0.1,0.1h2c0.1,0,0.1-0.1,0.1-0.1V31
	c0.7,0.9,1.7,1.2,2.8,1.2c2.1,0,4.2-1.6,4.2-4.7C58.4,24.5,56.3,22.9,54.2,22.9z M56.1,27.5c0,1.6-1,2.6-2.4,2.6s-2.4-1.1-2.4-2.6
	s1-2.6,2.4-2.6S56.1,26,56.1,27.5z M63.9,22.9c-2.7,0-4.8,2.1-4.8,4.7s2.1,4.6,4.7,4.6c2.7,0,4.8-2.1,4.8-4.7S66.5,22.9,63.9,22.9z
	 M63.9,30.2c-1.4,0-2.5-1.1-2.5-2.6s1-2.6,2.5-2.6s2.5,1.1,2.5,2.6S65.3,30.2,63.9,30.2z M74.3,23h-2.2v-2.2c0-0.1-0.1-0.1-0.1-0.1
	h-2c-0.1,0-0.1,0.1-0.1,0.1V23h-1c-0.1,0-0.1,0.1-0.1,0.1v1.7c0,0.1,0.1,0.1,0.1,0.1h1v4.5c0,1.7,0.9,2.7,2.6,2.7
	c0.7,0,1.4-0.1,1.9-0.5l0.1-0.1V30c0,0,0-0.1-0.1-0.1h-0.1c-0.4,0.2-0.7,0.2-1.1,0.2c-0.6,0-0.9-0.2-0.9-1V25h2.2
	c0.1,0,0.1-0.1,0.1-0.1v-1.7C74.4,23.1,74.4,23,74.3,23z M82,23v-0.2c0-0.9,0.2-1.1,1-1.1c0.4,0,0.7,0.1,1.1,0.2h0.1V20
	c0-0.1,0-0.1-0.1-0.1c-0.4-0.2-0.9-0.2-1.6-0.2c-1.9,0-2.8,1-2.8,3V23h-1c-0.1,0-0.1,0.1-0.1,0.1v1.7c0,0.1,0.1,0.1,0.1,0.1h1v6.8
	c0,0.1,0.1,0.1,0.1,0.1h2c0.1,0,0.1-0.1,0.1-0.1V25h1.9l2.8,6.8c-0.4,0.7-0.6,0.9-1.1,0.9c-0.4,0-0.7-0.1-1.1-0.4h-0.1
	c0,0-0.1,0-0.1,0.1l-0.6,1.5c0,0.1,0,0.1,0.1,0.2c0.7,0.4,1.4,0.5,2.1,0.5c1.5,0,2.2-0.7,3-2.5l3.5-8.9v-0.1L92,23h-2.1
	c0,0-0.1,0-0.1,0.1l-2.1,6.1l-2.4-6.1L85.2,23H82z M77.5,23h-2c-0.1,0-0.1,0.1-0.1,0.1v8.7c0,0.1,0.1,0.1,0.1,0.1h2
	c0.1,0,0.1-0.1,0.1-0.1v-8.7C77.6,23.1,77.6,23,77.5,23z M76.5,19.1c-0.7,0-1.5,0.6-1.5,1.4s0.6,1.5,1.5,1.5c0.7,0,1.5-0.6,1.5-1.5
	C78,19.7,77.3,19.1,76.5,19.1z"/>
<path class="st3" d="M157.6,1c3.5,0,6.4,2.9,6.4,6.4v25c0,3.5-2.9,6.4-6.4,6.4H7.4C3.9,38.7,1,35.9,1,32.3V7.4C1,3.9,3.9,1,7.4,1
	L157.6,1z M157.6,0H7.4C3.3,0,0,3.3,0,7.4v25c0,4,3.3,7.3,7.4,7.3h150.2c4.1,0,7.4-3.3,7.4-7.4V7.4C165,3.3,161.7,0,157.6,0z"/>
</svg>
