<svg xmlns="http://www.w3.org/2000/svg" viewBox="0 0 163.18 163.2"><defs><style>.cls-1{fill:#fff;}</style></defs><title>Asset 1</title><g id="Layer_2" data-name="Layer 2"><g id="Layer_1-2" data-name="Layer 1"><path class="cls-1" d="M163.18,0V163.2H0V0ZM140.53,38.29c-9.27,3.4-18.3,6.73-27.34,10a1.35,1.35,0,0,0-1.08,1.52c0,5.31,0,10.63,0,16,0,.35.05.69.07,1h6.6v-5.3l29.86,1V67.8h6.5v-18h-6.57V55c-.66-.08-1.16-.19-1.66-.2q-7.47-.27-15-.49L121.45,54a6.12,6.12,0,0,1-.79-.13c1.07-.44,1.91-.79,2.75-1.12Q137.12,47.38,150.85,42a1,1,0,0,0,.75-1.12c0-1.76,0-3.52,0-5.28,0-.61-.18-.86-.78-1.1-7.72-3-15.42-6-23.12-9l-6.87-2.72.06-.16,27.72-.94v5.15h6.58v-18h-6.63V14l-29.83,1V9.75h-6.6c0,5.88,0,11.68,0,17.47a1.11,1.11,0,0,0,.61.81c1.91.76,3.85,1.46,5.78,2.17Zm3.13,34.49a6.48,6.48,0,0,0,.34.94c2.88,5.26,4.68,10.78,3.87,16.87-.65,4.86-2.86,8.73-7.4,10.94a18.18,18.18,0,0,1-11.4,1.34A13.2,13.2,0,0,1,117.67,91a26.51,26.51,0,0,1,.93-10.42h7.73V72.75c-4,0-7.93,0-11.85,0a1.13,1.13,0,0,0-.86.58c-2.86,7.61-4.36,15.35-2,23.41a19.33,19.33,0,0,0,10,12.42,25.71,25.71,0,0,0,17.19,2.07,19,19,0,0,0,14.94-12.74,31.06,31.06,0,0,0,1.22-15.21,29.11,29.11,0,0,0-3.06-9.82,1.35,1.35,0,0,0-.91-.68C148.58,72.75,146.22,72.78,143.66,72.78Zm-17.33,52.46v-7.85c-4,0-7.94,0-11.85,0-.32,0-.79.47-.91.81a69,69,0,0,0-2.08,6.69,31.38,31.38,0,0,0,.08,16.38c2,6.73,6.16,11.42,12.85,13.73a26.77,26.77,0,0,0,13.89.92c7.33-1.36,12.48-5.45,15.22-12.41,2-5,2.09-10.27,1.39-15.53a29.41,29.41,0,0,0-3-9.84c-.16-.3-.5-.72-.77-.73-2.42,0-4.85,0-7.51,0l.81,1.63c2.58,5.12,4.27,10.44,3.45,16.27-.67,4.81-2.9,8.65-7.37,10.82a18.21,18.21,0,0,1-12.44,1.12,13,13,0,0,1-7.85-5,13.82,13.82,0,0,1-2.55-6.7,25.84,25.84,0,0,1,.95-10.31Z"/></g></g></svg>