<?xml version="1.0" encoding="UTF-8"?>
<svg width="100pt" height="100pt" version="1.1" viewBox="0 0 100 100" xmlns="http://www.w3.org/2000/svg">
 <g>
  <path d="m50 12.5c-20.711 0-37.5 16.789-37.5 37.5s16.789 37.5 37.5 37.5 37.5-16.789 37.5-37.5-16.789-37.5-37.5-37.5zm0 60c-12.426 0-22.5-10.074-22.5-22.5s10.074-22.5 22.5-22.5 22.5 10.074 22.5 22.5-10.074 22.5-22.5 22.5z"/>
  <path d="m92.734 59h-85.469c-1.25 0-2.2656-1.0156-2.2656-2.2656v-13.469c0-1.25 1.0156-2.2656 2.2656-2.2656h85.469c1.25 0 2.2656 1.0156 2.2656 2.2656v13.469c0 1.25-1.0156 2.2656-2.2656 2.2656z"/>
 </g>
</svg>
